<?xml version="1.0" encoding="UTF-8"?>
<!DOCTYPE svg PUBLIC "-//W3C//DTD SVG 1.1//EN" "http://www.w3.org/Graphics/SVG/1.1/DTD/svg11.dtd">
<svg xmlns="http://www.w3.org/2000/svg" version="1.1" width="184px" height="183px" style="shape-rendering:geometricPrecision; text-rendering:geometricPrecision; image-rendering:optimizeQuality; fill-rule:evenodd; clip-rule:evenodd" xmlns:xlink="http://www.w3.org/1999/xlink">
<g><path style="opacity:1" fill="#fefefe" d="M -0.5,-0.5 C 60.8333,-0.5 122.167,-0.5 183.5,-0.5C 183.5,60.5 183.5,121.5 183.5,182.5C 122.167,182.5 60.8333,182.5 -0.5,182.5C -0.5,121.5 -0.5,60.5 -0.5,-0.5 Z"/></g>
<g><path style="opacity:1" fill="#010101" d="M 83.5,67.5 C 80.1502,78.2109 76.4835,88.8776 72.5,99.5C 71.3298,102.851 69.8298,106.185 68,109.5C 66.1028,119.276 70.1028,124.943 80,126.5C 84.8741,126.566 88.5407,124.566 91,120.5C 92.5737,112.911 93.407,105.244 93.5,97.5C 96.3696,74.3688 98.7029,51.0355 100.5,27.5C 101.544,15.9566 107.878,10.1233 119.5,10C 124.751,4.9532 131.084,3.11987 138.5,4.5C 138.667,43.5014 138.5,82.5014 138,121.5C 135.504,132.807 132.17,143.807 128,154.5C 110.701,177.582 89.2011,182.415 63.5,169C 44.9754,153.068 40.1421,133.568 49,110.5C 56.1223,92.3521 62.789,74.0188 69,55.5C 69.5194,54.4844 70.3527,53.8178 71.5,53.5C 79.7485,54.7204 83.7485,59.3871 83.5,67.5 Z"/></g>
<g><path style="opacity:1" fill="#ecdb43" d="M 100.5,27.5 C 98.7029,51.0355 96.3696,74.3688 93.5,97.5C 86.2933,97.1108 79.2933,97.7774 72.5,99.5C 76.4835,88.8776 80.1502,78.2109 83.5,67.5C 88.868,54.0108 94.5347,40.6775 100.5,27.5 Z"/></g>
<g><path style="opacity:1" fill="#eeaa3d" d="M 93.5,97.5 C 93.407,105.244 92.5737,112.911 91,120.5C 88.5407,124.566 84.8741,126.566 80,126.5C 70.1028,124.943 66.1028,119.276 68,109.5C 69.8298,106.185 71.3298,102.851 72.5,99.5C 79.2933,97.7774 86.2933,97.1108 93.5,97.5 Z"/></g>
</svg>
